<svg width="18" height="16" viewBox="0 0 18 16" fill="none" xmlns="http://www.w3.org/2000/svg">
<path d="M9.83329 14.0843L14.5983 9.31925H16.1672L10.6178 14.8688C10.4012 15.0854 10.0499 15.0854 9.83329 14.8688C9.61666 14.6522 9.61666 14.3009 9.83329 14.0843ZM17.4375 7.52417C17.5104 7.67569 17.5104 7.85345 17.4375 8.00497V7.52417ZM10.6178 0.66035L16.1672 6.20988H14.5983L9.83329 1.44486C9.61666 1.22823 9.61666 0.876981 9.83329 0.660354C10.0499 0.443725 10.4012 0.443725 10.6178 0.66035ZM16.4375 7.20988V8.31925H15.5983L15.7994 8.11812L16.153 7.76457L15.7994 7.41101L15.5983 7.20988H16.4375ZM0.5625 7.20988L14.1841 7.20988L14.7388 7.76457L14.1841 8.31925L0.5625 8.31925L0.5625 7.20988Z" fill="#A82427" stroke="#A82427"/>
</svg>
