<svg width="18" height="16" viewBox="0 0 18 16" fill="none" xmlns="http://www.w3.org/2000/svg">
<path d="M8.16671 14.0843L3.40169 9.31925H1.8328L7.38221 14.8688C7.59884 15.0854 7.95008 15.0854 8.16671 14.8688C8.38334 14.6522 8.38334 14.3009 8.16671 14.0843ZM0.5625 7.52417C0.48963 7.67569 0.48963 7.85345 0.5625 8.00497V7.52417ZM7.38221 0.66035L1.8328 6.20988H3.40169L8.16671 1.44486C8.38334 1.22823 8.38334 0.876981 8.16671 0.660354C7.95008 0.443725 7.59884 0.443725 7.38221 0.66035ZM1.5625 7.20988V8.31925H2.40169L2.20055 8.11812L1.847 7.76457L2.20055 7.41101L2.40169 7.20988H1.5625ZM17.4375 7.20988L3.8159 7.20988L3.26122 7.76457L3.8159 8.31925L17.4375 8.31925V7.20988Z" fill="#A82427" stroke="#A82427"/>
</svg>
