<svg width="35" height="35" fill="none" xmlns="http://www.w3.org/2000/svg"><path d="M35 17.5C35 7.835 27.163 0 17.5 0 7.835 0 0 7.835 0 17.5c0 8.206 5.65 15.093 13.272 16.984V22.847H9.664V17.5h3.608v-2.305c0-5.956 2.696-8.717 8.544-8.717 1.108 0 3.022.218 3.804.435v4.848c-.413-.044-1.13-.066-2.021-.066-2.87 0-3.978 1.087-3.978 3.913V17.5h5.716l-.982 5.348H19.62V34.87C28.286 33.825 35 26.447 35 17.5z" fill="#fff"/><path d="M24.354 22.848l.982-5.348H19.62v-1.892c0-2.826 1.109-3.913 3.978-3.913.891 0 1.609.022 2.022.066V6.913c-.783-.218-2.696-.435-3.805-.435-5.847 0-8.543 2.761-8.543 8.717V17.5H9.664v5.348h3.608v11.636a17.53 17.53 0 006.347.387V22.847h4.735z" fill="#000"/></svg>