<svg width="35" height="35" fill="none" xmlns="http://www.w3.org/2000/svg"><path d="M11.668 17.5a5.833 5.833 0 115.833 5.834 5.833 5.833 0 01-5.833-5.834zm-3.154 0a8.986 8.986 0 008.987 8.986 8.986 8.986 0 100-17.972A8.986 8.986 0 008.514 17.5zm16.229-9.342a2.1 2.1 0 102.1-2.1 2.1 2.1 0 00-2.1 2.1zM10.43 31.745c-1.706-.078-2.633-.362-3.25-.602a5.439 5.439 0 01-2.013-1.31 5.4 5.4 0 01-1.309-2.01c-.24-.617-.524-1.545-.602-3.25-.084-1.845-.101-2.4-.101-7.073s.018-5.226.101-7.072c.078-1.706.364-2.632.602-3.25.319-.817.697-1.4 1.31-2.013A5.393 5.393 0 017.18 3.856c.616-.24 1.544-.524 3.25-.602 1.845-.085 2.4-.101 7.07-.101 4.672 0 5.227.018 7.073.101 1.706.078 2.632.364 3.25.602.817.317 1.4.697 2.013 1.31a5.421 5.421 0 011.31 2.012c.24.616.523 1.544.601 3.25.085 1.846.102 2.399.102 7.072 0 4.674-.017 5.226-.102 7.072-.078 1.706-.363 2.634-.602 3.25a5.423 5.423 0 01-1.309 2.012 5.44 5.44 0 01-2.013 1.309c-.616.24-1.544.524-3.25.602-1.845.084-2.399.101-7.072.101-4.674 0-5.226-.017-7.07-.101zM10.286.106c-1.864.085-3.137.38-4.248.813a8.584 8.584 0 00-3.1 2.018 8.55 8.55 0 00-2.02 3.1C.487 7.15.192 8.422.107 10.285.02 12.151 0 12.748 0 17.5s.02 5.349.106 7.215c.085 1.863.38 3.135.813 4.248a8.555 8.555 0 002.018 3.1 8.605 8.605 0 003.1 2.018c1.114.433 2.385.728 4.249.813 1.867.085 2.462.106 7.215.106 4.752 0 5.349-.02 7.215-.106 1.863-.085 3.135-.38 4.248-.813a8.607 8.607 0 003.1-2.018 8.572 8.572 0 002.019-3.1c.432-1.113.729-2.385.812-4.248.085-1.867.105-2.463.105-7.215s-.02-5.349-.105-7.215c-.084-1.863-.38-3.136-.813-4.248a8.605 8.605 0 00-2.018-3.1A8.563 8.563 0 0028.965.92C27.851.486 26.58.189 24.717.106 22.851.021 22.255 0 17.502 0c-4.752 0-5.35.02-7.216.106z" fill="url(#a)"/><path d="M11.668 17.5a5.833 5.833 0 115.833 5.834 5.833 5.833 0 01-5.833-5.834zm-3.154 0a8.986 8.986 0 008.987 8.986 8.986 8.986 0 100-17.972A8.986 8.986 0 008.514 17.5zm16.229-9.342a2.1 2.1 0 102.1-2.1 2.1 2.1 0 00-2.1 2.1zM10.43 31.745c-1.706-.078-2.633-.362-3.25-.602a5.439 5.439 0 01-2.013-1.31 5.4 5.4 0 01-1.309-2.01c-.24-.617-.524-1.545-.602-3.25-.084-1.845-.101-2.4-.101-7.073s.018-5.226.101-7.072c.078-1.706.364-2.632.602-3.25.319-.817.697-1.4 1.31-2.013A5.393 5.393 0 017.18 3.856c.616-.24 1.544-.524 3.25-.602 1.845-.085 2.4-.101 7.07-.101 4.672 0 5.227.018 7.073.101 1.706.078 2.632.364 3.25.602.817.317 1.4.697 2.013 1.31a5.421 5.421 0 011.31 2.012c.24.616.523 1.544.601 3.25.085 1.846.102 2.399.102 7.072 0 4.674-.017 5.226-.102 7.072-.078 1.706-.363 2.634-.602 3.25a5.423 5.423 0 01-1.309 2.012 5.44 5.44 0 01-2.013 1.309c-.616.24-1.544.524-3.25.602-1.845.084-2.399.101-7.072.101-4.674 0-5.226-.017-7.07-.101zM10.286.106c-1.864.085-3.137.38-4.248.813a8.584 8.584 0 00-3.1 2.018 8.55 8.55 0 00-2.02 3.1C.487 7.15.192 8.422.107 10.285.02 12.151 0 12.748 0 17.5s.02 5.349.106 7.215c.085 1.863.38 3.135.813 4.248a8.555 8.555 0 002.018 3.1 8.605 8.605 0 003.1 2.018c1.114.433 2.385.728 4.249.813 1.867.085 2.462.106 7.215.106 4.752 0 5.349-.02 7.215-.106 1.863-.085 3.135-.38 4.248-.813a8.607 8.607 0 003.1-2.018 8.572 8.572 0 002.019-3.1c.432-1.113.729-2.385.812-4.248.085-1.867.105-2.463.105-7.215s-.02-5.349-.105-7.215c-.084-1.863-.38-3.136-.813-4.248a8.605 8.605 0 00-2.018-3.1A8.563 8.563 0 0028.965.92C27.851.486 26.58.189 24.717.106 22.851.021 22.255 0 17.502 0c-4.752 0-5.35.02-7.216.106z" fill="#fff"/><defs><radialGradient id="a" cx="0" cy="0" r="1" gradientUnits="userSpaceOnUse" gradientTransform="matrix(45.6914 0 0 45.6896 4.65 35.165)"><stop offset=".09" stop-color="#FA8F21"/><stop offset=".78" stop-color="#D82D7E"/></radialGradient></defs></svg>