<svg width="36" height="26" fill="none" xmlns="http://www.w3.org/2000/svg"><path d="M34.313 4.498a4.399 4.399 0 00-3.095-3.114C28.482.648 17.544.648 17.544.648s-10.937 0-13.673.736A4.399 4.399 0 00.776 4.498c-.732 2.748-.732 8.48-.732 8.48s0 5.73.732 8.479a4.399 4.399 0 003.095 3.114c2.736.736 13.673.736 13.673.736s10.938 0 13.674-.736a4.398 4.398 0 003.095-3.114c.731-2.748.731-8.48.731-8.48s0-5.731-.731-8.48z" fill="#000"/><path d="M13.965 18.182V7.773l9.148 5.204-9.148 5.205z" fill="#FEFEFE"/></svg>